<?xml version="1.0" encoding="utf-8"?>
<!-- Svg Vector Icons : http://www.onlinewebfonts.com/icon -->
<!DOCTYPE svg PUBLIC "-//W3C//DTD SVG 1.1//EN" "http://www.w3.org/Graphics/SVG/1.1/DTD/svg11.dtd">
<svg version="1.1" xmlns="http://www.w3.org/2000/svg" xmlns:xlink="http://www.w3.org/1999/xlink" x="0px" y="0px" viewBox="0 0 1000 1000" enable-background="new 0 0 1000 1000" xml:space="preserve">
<metadata> Svg Vector Icons : http://www.onlinewebfonts.com/icon </metadata>
<g><g transform="translate(0.000000,511.000000) scale(0.100000,-0.100000)"><path d="M3324.3,4979.3c-55.2-55.2-46-95,67.4-266.6c58.2-85.8,113.4-196.1,125.6-245.2c30.6-137.9-36.8-334-199.2-585.3c-190-288-245.2-447.4-245.2-686.4c3.1-364.7,272.7-744.7,422.9-594.5c58.2,58.2,46,104.2-67.4,254.3c-180.8,236-180.8,441.3,3.1,741.6c248.2,398.4,291.1,502.6,306.4,692.5c21.4,239-27.6,410.6-153.2,579.2C3480.5,5006.9,3388.6,5043.6,3324.3,4979.3z"/><path d="M4550,4979.3c-55.2-55.2-46-95,67.4-266.6c58.2-85.8,113.4-196.1,125.6-245.2c30.6-137.9-36.8-334-199.2-585.3c-190-288-245.2-447.4-245.2-686.4c3.1-364.7,272.7-744.7,422.9-594.5c58.2,58.2,46,104.2-67.4,254.3c-180.8,236-180.8,441.3,3.1,741.6c248.2,398.4,291.1,502.6,306.4,692.5c21.4,239-27.6,410.6-153.2,579.2C4706.3,5006.9,4614.4,5043.6,4550,4979.3z"/><path d="M5775.8,4979.3c-55.1-55.2-46-95,67.4-266.6c58.2-85.8,113.4-196.1,125.6-245.2c30.6-137.9-36.8-334-199.2-585.3c-190-288-245.1-447.4-245.1-686.4c3.1-364.7,272.7-744.7,422.9-594.5c58.3,58.2,46,104.2-67.4,254.3c-180.8,236-180.8,441.3,3,741.6c248.2,398.4,291.1,502.6,306.4,692.5c21.5,239-27.6,410.6-153.2,579.2C5932,5006.9,5840.1,5043.6,5775.8,4979.3z"/><path d="M1874.8,1758.6c-214.5-144-217.6,55.2,46-2828.4c128.7-1431.1,232.9-2632.3,232.9-2669.1c0-67.4-3.1-70.5-570-76.6c-505.6-9.2-576.1-15.3-606.7-61.3c-21.5-36.8-24.5-70.5-3.1-104.2c18.4-27.6,312.6-140.9,658.8-257.4c346.3-113.4,799.8-285,1011.2-380l383-171.6h1611.9h1611.9l288.1,134.8c373.8,174.7,799.8,334,1311.6,493.4c425.9,131.8,508.7,183.9,444.3,285c-30.6,46-101.2,52.1-619,61.3l-585.3,6.1l12.3,85.8c6.1,46,27.6,254.3,46,465.8c18.4,211.4,39.8,447.4,49,527.1l18.4,140.9l432.1,12.3c389.2,9.2,453.5,18.4,603.7,88.9c297.2,137.9,551.6,450.5,640.5,778.4c49,190,162.4,1452.5,147.1,1627.2c-33.7,324.8-303.4,668-658.8,833.5c-150.2,70.5-226.8,82.7-521,91.9l-346.3,12.3l15.3,113.4c76.6,530.2,49,683.4-144,799.8c-95,58.2-174.7,61.3-2751.8,61.3H1979L1874.8,1758.6z M7298.8,1544.1c24.5-33.7-24.6-689.5-196.2-2598.6c-128.7-1406.5-239-2601.7-248.2-2656.8l-15.3-98.1l-2212.5,6.1l-2212.5,9.2l-239,2644.6c-131.8,1455.6-232.9,2666-223.7,2690.5C1975.9,1605.4,7246.7,1605.4,7298.8,1544.1z M8362.1,505.3c190-101.1,324.9-248.2,398.4-441.3c55.2-144,55.2-162.4-12.2-910.1c-82.7-888.7-119.5-1026.6-340.2-1247.2c-199.2-199.2-352.4-245.2-805.9-245.2h-361.6v122.6v122.6h346.3c383,0,520.9,42.9,671.1,202.2c144,153.2,174.7,281.9,242.1,1011.3c73.6,781.4,64.4,848.8-101.1,1020.4c-162.4,168.5-306.4,217.6-628.2,217.6h-285v125.6v125.6l361.6-12.3C8162.9,588,8224.2,575.7,8362.1,505.3z M8153.7,51.7c55.1-33.7,113.4-98.1,131.8-144c42.9-113.4-79.6-1452.5-144-1575.1c-73.6-144-183.9-180.8-548.5-180.8h-324.8l15.3,131.8c12.2,70.5,46,447.4,79.6,833.5c33.7,389.2,70.5,769.2,79.7,851.9l18.4,144h294.2C7997.5,113,8071,100.8,8153.7,51.7z M6903.5-4235.4c-245.2-98-502.5-208.4-573-242.1c-128.7-67.4-153.2-67.4-1688.5-67.4H3085.2l-334,147.1c-186.9,82.7-444.3,186.9-573.1,236c-131.8,46-239,88.8-239,95c0,6.1,1216.6,12.3,2705.9,12.3l2702.8-3.1L6903.5-4235.4z"/><path d="M4341.6,309.1c-263.5-95-462.7-330.9-600.6-704.8c-55.2-153.2-67.4-245.1-67.4-594.5c0-444.3,39.8-616,211.4-907.1c315.6-536.3,1054.2-582.2,1431.1-88.9c229.8,303.4,340.1,790.6,278.8,1247.2C5503-73.9,5169,321.4,4672.6,345.9C4540.8,352,4421.3,339.8,4341.6,309.1z M4596-27.9c52.1-180.8,46-429-21.5-692.5c-33.7-131.8-88.9-346.3-122.6-475c-64.4-251.3-76.6-560.8-33.7-750.8c30.6-131.8,30.6-131.8-85.8-73.6c-131.8,70.5-263.5,239-343.2,438.2c-61.3,153.2-70.5,232.9-70.5,591.4c0,361.6,6.1,435.1,70.5,591.4c39.8,98.1,113.4,229.8,165.5,288.1c95,107.2,312.6,232.9,373.9,211.4C4543.9,97.7,4574.5,39.5,4596-27.9z M4963.7,21.1c134.8-82.8,275.8-285,340.1-487.3c70.5-236,70.5-812.1-3.1-1051.1c-85.8-285-288-505.6-514.8-560.8c-76.6-18.4-82.7-12.3-119.5,141c-52.1,217.6-21.5,600.6,73.5,894.8c134.8,404.5,171.6,867.2,88.9,1081.7C4807.4,97.7,4847.3,94.6,4963.7,21.1z"/></g></g>
</svg>