<?xml version="1.0" encoding="utf-8"?>
<!-- Svg Vector Icons : http://www.onlinewebfonts.com/icon -->
<!DOCTYPE svg PUBLIC "-//W3C//DTD SVG 1.1//EN" "http://www.w3.org/Graphics/SVG/1.1/DTD/svg11.dtd">
<svg version="1.1" xmlns="http://www.w3.org/2000/svg" xmlns:xlink="http://www.w3.org/1999/xlink" x="0px" y="0px" viewBox="0 0 1000 1000" enable-background="new 0 0 1000 1000" xml:space="preserve">
<metadata> Svg Vector Icons : http://www.onlinewebfonts.com/icon </metadata>
<g><path d="M603.7,453c20.7,27.3,38,55.9,51.9,85.1c5.2-70.4,26.2-128.6,48.2-184.6c35.5-90.2,58.3-150.3,57.6-250.3c-0.4-51.9-10.8-97.3-45.1-94.7C625.3,18.1,542,86.2,493.2,186c-19.5,39.8-33.4,84.6-40.1,132.8c-0.2,1.4-0.4,2.8-0.6,4.2C508,352.3,560.5,396.2,603.7,453z"/><path d="M839.2,33c-27.3-15.7-35.5-3-36.5,20.8c-1.1,25.5,6,63.5,6.5,93.6c1,59-5.7,114.9-23.5,171.4c-27.2,86.1-70.7,150.8-91.1,271.8c-2,12-6.3,19.1-11.4,22.1c8.4,30.9,13.1,61.8,13.9,91.8c29.3,0.3,59.3-5.6,88.9-18.1c99.3-41.9,179.8-153.5,199.5-293.4C1007.7,234.7,944.7,89.9,839.2,33z"/><path d="M396.9,991c-103-6.6-213.7-67.3-293-171.6C-7.3,673-19.7,489.9,66.7,382.4c24-28.2,66.6-1.6,106.6,37.5c77,75.5,105.6,138.5,147.6,234.2c30.8,70,65.1,141.5,133.8,207.9c29.4,28.3,66.4,15.2,40.6-20.9c-77-107.5-93.5-189.9-138.6-276.1c-29.7-56.6-67.4-104.1-113.2-148.2c-23.4-22.4-57.9-45.9-76.5-66.1c-17.5-18.8-21-34.7,11.8-43.7c123.7-37.5,282.3,24.4,386.5,161.6c92,121.3,116.2,267.7,72.8,375.4C597.7,943.9,506.2,998,396.9,991L396.9,991L396.9,991z"/></g>
</svg>