<?xml version="1.0" encoding="utf-8"?>
<!-- Svg Vector Icons : http://www.onlinewebfonts.com/icon -->
<!DOCTYPE svg PUBLIC "-//W3C//DTD SVG 1.1//EN" "http://www.w3.org/Graphics/SVG/1.1/DTD/svg11.dtd">
<svg version="1.1" xmlns="http://www.w3.org/2000/svg" xmlns:xlink="http://www.w3.org/1999/xlink" x="0px" y="0px" viewBox="0 0 1000 1000" enable-background="new 0 0 1000 1000" xml:space="preserve">
<metadata> Svg Vector Icons : http://www.onlinewebfonts.com/icon </metadata>
<g><g transform="translate(0.000000,512.000000) scale(0.100000,-0.100000)"><path d="M2635.7,4978.9c-111.4-88.4-107.6-247.8,7.7-357.3c71.1-65.3,130.6-186.3,132.6-263.2c0-92.2-50-178.7-178.7-309.3c-80.7-78.8-147.9-171-190.2-255.5c-59.5-122.9-63.4-142.2-63.4-332.3c0-178.7,5.8-213.2,51.9-313.1c63.4-134.5,226.7-311.2,315-340c146-48,276.6,51.9,276.6,211.3c0,82.6-9.6,101.8-86.5,188.3c-96,107.6-124.9,167.1-124.9,265.1c0,96,46.1,174.8,182.5,309.3c80.7,76.8,142.2,161.4,184.4,249.7c59.6,121,65.3,144.1,65.3,322.7c0,171-5.8,205.6-53.8,305.4c-63.4,134.5-169.1,270.9-251.7,320.8C2824,5028.9,2699.1,5028.9,2635.7,4978.9z"/><path d="M3867.1,4978.9c-109.5-86.4-117.2-240.1-13.4-338.1c74.9-71.1,124.9-153.7,142.2-232.4c23.1-111.4-19.2-197.9-167.1-353.5c-78.8-80.7-165.2-194-197.9-259.3c-53.8-105.7-57.6-128.7-57.6-324.7c0-190.2,5.8-222.8,51.9-322.7c67.2-142.2,228.6-315.1,322.7-341.9c134.5-40.3,268.9,67.2,268.9,213.2c0,65.3-48,172.9-76.8,172.9c-11.5,0-46.1,40.3-76.8,90.3c-61.5,96.1-74.9,207.5-38.4,305.4c11.5,28.8,78.8,113.3,151.8,188.3c151.8,159.5,197.9,232.5,240.1,374.6c40.3,140.2,38.4,280.5-7.7,430.3c-44.2,146-176.7,334.3-274.7,393.8C4049.6,5028.9,3930.5,5030.8,3867.1,4978.9z"/><path d="M5079.3,4963.6c-44.2-40.3-61.5-74.9-69.1-140.2c-9.6-82.6-5.8-92.2,86.4-195.9c184.4-211.3,174.8-338.1-44.2-570.6c-222.8-240.1-303.5-463-259.3-714.6c44.2-236.3,220.9-487.9,378.5-534.1c144.1-44.2,274.7,61.5,274.7,220.9c0,51.9-17.3,86.5-74.9,149.8c-98,105.7-136.4,186.3-136.4,280.5c0,115.3,26.9,163.3,172.9,318.9c159.4,169.1,242,324.7,259.3,499.5c28.8,259.3-86.4,528.3-293.9,687.7C5277.2,5038.5,5161.9,5038.5,5079.3,4963.6z"/><path d="M1093.1,2310.6c-32.7-19.2-69.2-61.5-80.7-90.3c-17.3-42.3-23.1-730-19.2-2860.5l5.8-2804.7l42.3-126.8c132.5-386.1,451.4-662.8,874.1-755c42.3-9.6,67.2-44.2,142.2-195.9c50-99.9,111.4-199.8,138.3-219c46.1-36.5,90.3-38.4,1692.5-38.4c1467.7,0,1650.2,3.8,1688.6,30.7c23.1,15.4,86.4,115.3,138.3,220.9c80.7,157.5,105.7,192.1,147.9,201.7c144.1,30.8,303.5,94.1,403.4,159.5c343.9,224.8,522.5,564.8,524.4,993.2v155.6l428.4,11.5c472.6,11.5,566.7,26.9,791.5,138.3c464.9,226.7,804.9,766.5,954.8,1509.9c36.5,182.5,42.3,280.5,42.3,584c0,391.9-23.1,570.6-115.3,887.5c-159.5,551.3-476.4,1000.9-843.4,1191.1c-249.7,128.7-326.6,144.1-820.3,153.7l-438,9.6v343.9c0,255.5-7.7,363.1-26.9,411.1c-57.6,134.5,153.7,124.9-2877.7,124.9C1244.9,2347.1,1150.8,2345.2,1093.1,2310.6z M2772.1,1459.6l-5.8-447.6l-270.9-9.6c-290.1-9.6-313.1-17.3-365-117.2c-23-44.2-26.9-215.2-26.9-991.3c0-1008.6,0-993.2,101.8-1070c53.8-38.4,73-40.3,791.5-40.3s737.7,1.9,791.5,40.3c101.8,76.8,101.8,61.5,101.8,1070c0,776.1-3.8,947.1-26.9,991.3c-51.9,99.9-74.9,107.6-365,117.2l-270.9,9.6l-5.8,447.6l-3.8,445.7h1565.7h1565.7V-35v-1940.3l55.7-61.5l55.7-63.4h488h486l126.8,61.5c318.9,157.5,507.2,514.8,553.3,1047c74.9,874.1-259.3,1511.9-810.7,1548.4c-130.6,7.7-144.1,5.8-201.7-44.2c-146-122.9-90.3-357.3,90.3-384.2c159.4-25,211.3-50,288.2-136.4c128.7-146,194-405.3,194-768.4c0-451.4-121-779.9-320.8-864.5c-42.3-19.2-142.1-26.9-313.1-26.9H6791v1337.1v1335.1l438-5.8l438-5.8l124.9-61.5c69.2-34.6,167.1-98,217.1-142.1c378.4-334.3,618.6-1110.4,551.3-1796.2c-69.2-718.5-355.4-1271.7-762.6-1469.6l-132.5-65.3l-585.9-9.6c-426.5-7.7-597.5-17.3-628.2-34.6c-84.5-48-101.8-117.2-101.8-393.8c0-403.4-42.3-549.4-203.6-716.5c-107.6-109.5-257.4-178.7-428.4-197.9c-169.1-17.3-207.5-49.9-320.8-274.7l-84.5-169H3884.4H2457.1l-84.5,172.9c-111.4,226.7-136.4,247.8-307.4,270.8c-263.2,32.7-468.7,174.8-572.5,397.7l-51.9,109.5L1435.1-740l-3.8,2645.3h672.4H2776L2772.1,1459.6z M3448.4-102.2V-765h-451.5h-451.4v662.8v662.8h451.4h451.5V-102.2z"/></g></g>
</svg>